<mxfile host="app.diagrams.net" modified="2021-12-06T10:24:19.469Z" agent="5.0 (Windows NT 10.0; Win64; x64) AppleWebKit/537.36 (KHTML, like Gecko) Chrome/96.0.4664.55 Safari/537.36 Edg/96.0.1054.43" etag="Z0gpsYOMO9VbqHNtMqym" version="15.8.9" type="github">
  <diagram id="zcFG6T6siHKLuZlB5xpX" name="Page-1">
    <mxGraphModel dx="785" dy="535" grid="1" gridSize="10" guides="1" tooltips="1" connect="1" arrows="1" fold="1" page="1" pageScale="1" pageWidth="827" pageHeight="1169" math="0" shadow="0">
      <root>
        <mxCell id="0" />
        <mxCell id="1" parent="0" />
        <mxCell id="H_uFPEffW0rqtd1O7-SZ-1" value="" style="fontColor=#0066CC;verticalAlign=top;verticalLabelPosition=bottom;labelPosition=center;align=center;html=1;outlineConnect=0;fillColor=#CCCCCC;strokeColor=#6881B3;gradientColor=none;gradientDirection=north;strokeWidth=2;shape=mxgraph.networks.satellite;rotation=-45;" vertex="1" parent="1">
          <mxGeometry x="169.5" y="210" width="60" height="60" as="geometry" />
        </mxCell>
        <mxCell id="H_uFPEffW0rqtd1O7-SZ-3" value="" style="ellipse;whiteSpace=wrap;html=1;aspect=fixed;" vertex="1" parent="1">
          <mxGeometry x="160" y="405" width="80" height="80" as="geometry" />
        </mxCell>
        <mxCell id="H_uFPEffW0rqtd1O7-SZ-4" value="" style="triangle;whiteSpace=wrap;html=1;fontFamily=Helvetica;fontSize=12;fontColor=rgb(0, 0, 0);align=center;strokeColor=rgb(0, 0, 0);fillColor=rgb(255, 255, 255);rotation=-90;" vertex="1" parent="1">
          <mxGeometry x="144" y="295" width="111" height="80" as="geometry" />
        </mxCell>
        <mxCell id="H_uFPEffW0rqtd1O7-SZ-5" value="" style="rounded=0;whiteSpace=wrap;html=1;" vertex="1" parent="1">
          <mxGeometry x="159" y="390" width="81" height="10" as="geometry" />
        </mxCell>
        <mxCell id="H_uFPEffW0rqtd1O7-SZ-6" value="" style="endArrow=none;dashed=1;html=1;dashPattern=1 3;strokeWidth=1;rounded=0;jumpSize=4;" edge="1" parent="1">
          <mxGeometry width="50" height="50" relative="1" as="geometry">
            <mxPoint x="160" y="450" as="sourcePoint" />
            <mxPoint x="160" y="400" as="targetPoint" />
          </mxGeometry>
        </mxCell>
        <mxCell id="H_uFPEffW0rqtd1O7-SZ-7" value="" style="endArrow=none;dashed=1;html=1;dashPattern=1 3;strokeWidth=1;rounded=0;jumpSize=4;" edge="1" parent="1">
          <mxGeometry width="50" height="50" relative="1" as="geometry">
            <mxPoint x="239.43" y="450" as="sourcePoint" />
            <mxPoint x="239.43" y="400" as="targetPoint" />
          </mxGeometry>
        </mxCell>
        <mxCell id="H_uFPEffW0rqtd1O7-SZ-8" value="" style="endArrow=classicThin;html=1;rounded=0;strokeWidth=1;jumpSize=4;endFill=1;startSize=6;endSize=4;" edge="1" parent="1">
          <mxGeometry width="50" height="50" relative="1" as="geometry">
            <mxPoint x="159" y="560" as="sourcePoint" />
            <mxPoint x="239" y="560" as="targetPoint" />
          </mxGeometry>
        </mxCell>
        <mxCell id="H_uFPEffW0rqtd1O7-SZ-9" value="" style="endArrow=classicThin;html=1;rounded=0;strokeWidth=1;jumpSize=4;endFill=1;endSize=4;" edge="1" parent="1">
          <mxGeometry width="50" height="50" relative="1" as="geometry">
            <mxPoint x="159" y="560" as="sourcePoint" />
            <mxPoint x="159" y="490" as="targetPoint" />
          </mxGeometry>
        </mxCell>
        <mxCell id="H_uFPEffW0rqtd1O7-SZ-14" value="" style="group" vertex="1" connectable="0" parent="1">
          <mxGeometry x="149.5" y="266" width="100.5" height="104" as="geometry" />
        </mxCell>
        <mxCell id="H_uFPEffW0rqtd1O7-SZ-12" value="" style="verticalLabelPosition=bottom;verticalAlign=top;html=1;shape=mxgraph.basic.arc;startAngle=0.40038097503927417;endAngle=0.5989014832789807;" vertex="1" parent="H_uFPEffW0rqtd1O7-SZ-14">
          <mxGeometry y="4" width="100" height="100" as="geometry" />
        </mxCell>
        <mxCell id="H_uFPEffW0rqtd1O7-SZ-13" value="" style="verticalLabelPosition=bottom;verticalAlign=top;html=1;shape=mxgraph.basic.arc;startAngle=0.40738692403756394;endAngle=0.5975949807136545;" vertex="1" parent="H_uFPEffW0rqtd1O7-SZ-14">
          <mxGeometry x="0.5" width="100" height="100" as="geometry" />
        </mxCell>
        <mxCell id="H_uFPEffW0rqtd1O7-SZ-18" value="" style="fontColor=#0066CC;verticalAlign=top;verticalLabelPosition=bottom;labelPosition=center;align=center;html=1;outlineConnect=0;fillColor=#CCCCCC;strokeColor=#6881B3;gradientColor=none;gradientDirection=north;strokeWidth=2;shape=mxgraph.networks.satellite;rotation=-45;" vertex="1" parent="1">
          <mxGeometry x="271.5" y="210" width="60" height="60" as="geometry" />
        </mxCell>
        <mxCell id="H_uFPEffW0rqtd1O7-SZ-19" value="" style="ellipse;whiteSpace=wrap;html=1;aspect=fixed;" vertex="1" parent="1">
          <mxGeometry x="262" y="405" width="80" height="80" as="geometry" />
        </mxCell>
        <mxCell id="H_uFPEffW0rqtd1O7-SZ-20" value="" style="triangle;whiteSpace=wrap;html=1;fontFamily=Helvetica;fontSize=12;fontColor=rgb(0, 0, 0);align=center;strokeColor=rgb(0, 0, 0);fillColor=rgb(255, 255, 255);rotation=-90;" vertex="1" parent="1">
          <mxGeometry x="246" y="295" width="111" height="80" as="geometry" />
        </mxCell>
        <mxCell id="H_uFPEffW0rqtd1O7-SZ-21" value="" style="rounded=0;whiteSpace=wrap;html=1;" vertex="1" parent="1">
          <mxGeometry x="261" y="390" width="81" height="10" as="geometry" />
        </mxCell>
        <mxCell id="H_uFPEffW0rqtd1O7-SZ-22" value="" style="endArrow=none;dashed=1;html=1;dashPattern=1 3;strokeWidth=1;rounded=0;jumpSize=4;" edge="1" parent="1">
          <mxGeometry width="50" height="50" relative="1" as="geometry">
            <mxPoint x="262" y="450" as="sourcePoint" />
            <mxPoint x="262" y="400" as="targetPoint" />
          </mxGeometry>
        </mxCell>
        <mxCell id="H_uFPEffW0rqtd1O7-SZ-23" value="" style="endArrow=none;dashed=1;html=1;dashPattern=1 3;strokeWidth=1;rounded=0;jumpSize=4;" edge="1" parent="1">
          <mxGeometry width="50" height="50" relative="1" as="geometry">
            <mxPoint x="341.43000000000006" y="450" as="sourcePoint" />
            <mxPoint x="341.43000000000006" y="400" as="targetPoint" />
          </mxGeometry>
        </mxCell>
        <mxCell id="H_uFPEffW0rqtd1O7-SZ-24" value="" style="endArrow=classicThin;html=1;rounded=0;strokeWidth=1;jumpSize=4;endFill=1;startSize=6;endSize=4;" edge="1" parent="1">
          <mxGeometry width="50" height="50" relative="1" as="geometry">
            <mxPoint x="261" y="560" as="sourcePoint" />
            <mxPoint x="341" y="560" as="targetPoint" />
          </mxGeometry>
        </mxCell>
        <mxCell id="H_uFPEffW0rqtd1O7-SZ-25" value="" style="endArrow=classicThin;html=1;rounded=0;strokeWidth=1;jumpSize=4;endFill=1;endSize=4;" edge="1" parent="1">
          <mxGeometry width="50" height="50" relative="1" as="geometry">
            <mxPoint x="261" y="560" as="sourcePoint" />
            <mxPoint x="261" y="490" as="targetPoint" />
          </mxGeometry>
        </mxCell>
        <mxCell id="H_uFPEffW0rqtd1O7-SZ-26" value="" style="group" vertex="1" connectable="0" parent="1">
          <mxGeometry x="251.5" y="266" width="100.5" height="104" as="geometry" />
        </mxCell>
        <mxCell id="H_uFPEffW0rqtd1O7-SZ-27" value="" style="verticalLabelPosition=bottom;verticalAlign=top;html=1;shape=mxgraph.basic.arc;startAngle=0.40038097503927417;endAngle=0.5989014832789807;" vertex="1" parent="H_uFPEffW0rqtd1O7-SZ-26">
          <mxGeometry y="4" width="100" height="100" as="geometry" />
        </mxCell>
        <mxCell id="H_uFPEffW0rqtd1O7-SZ-28" value="" style="verticalLabelPosition=bottom;verticalAlign=top;html=1;shape=mxgraph.basic.arc;startAngle=0.40738692403756394;endAngle=0.5975949807136545;" vertex="1" parent="H_uFPEffW0rqtd1O7-SZ-26">
          <mxGeometry x="0.5" width="100" height="100" as="geometry" />
        </mxCell>
        <mxCell id="H_uFPEffW0rqtd1O7-SZ-29" value="" style="fontColor=#0066CC;verticalAlign=top;verticalLabelPosition=bottom;labelPosition=center;align=center;html=1;outlineConnect=0;fillColor=#CCCCCC;strokeColor=#6881B3;gradientColor=none;gradientDirection=north;strokeWidth=2;shape=mxgraph.networks.satellite;rotation=-45;" vertex="1" parent="1">
          <mxGeometry x="373.5" y="210" width="60" height="60" as="geometry" />
        </mxCell>
        <mxCell id="H_uFPEffW0rqtd1O7-SZ-30" value="" style="ellipse;whiteSpace=wrap;html=1;aspect=fixed;" vertex="1" parent="1">
          <mxGeometry x="364" y="405" width="80" height="80" as="geometry" />
        </mxCell>
        <mxCell id="H_uFPEffW0rqtd1O7-SZ-31" value="" style="triangle;whiteSpace=wrap;html=1;fontFamily=Helvetica;fontSize=12;fontColor=rgb(0, 0, 0);align=center;strokeColor=rgb(0, 0, 0);fillColor=rgb(255, 255, 255);rotation=-90;" vertex="1" parent="1">
          <mxGeometry x="348" y="295" width="111" height="80" as="geometry" />
        </mxCell>
        <mxCell id="H_uFPEffW0rqtd1O7-SZ-32" value="" style="rounded=0;whiteSpace=wrap;html=1;" vertex="1" parent="1">
          <mxGeometry x="363" y="390" width="81" height="10" as="geometry" />
        </mxCell>
        <mxCell id="H_uFPEffW0rqtd1O7-SZ-33" value="" style="endArrow=none;dashed=1;html=1;dashPattern=1 3;strokeWidth=1;rounded=0;jumpSize=4;" edge="1" parent="1">
          <mxGeometry width="50" height="50" relative="1" as="geometry">
            <mxPoint x="364" y="450" as="sourcePoint" />
            <mxPoint x="364" y="400" as="targetPoint" />
          </mxGeometry>
        </mxCell>
        <mxCell id="H_uFPEffW0rqtd1O7-SZ-34" value="" style="endArrow=none;dashed=1;html=1;dashPattern=1 3;strokeWidth=1;rounded=0;jumpSize=4;" edge="1" parent="1">
          <mxGeometry width="50" height="50" relative="1" as="geometry">
            <mxPoint x="443.43000000000006" y="450" as="sourcePoint" />
            <mxPoint x="443.43000000000006" y="400" as="targetPoint" />
          </mxGeometry>
        </mxCell>
        <mxCell id="H_uFPEffW0rqtd1O7-SZ-35" value="" style="endArrow=classicThin;html=1;rounded=0;strokeWidth=1;jumpSize=4;endFill=1;startSize=6;endSize=4;" edge="1" parent="1">
          <mxGeometry width="50" height="50" relative="1" as="geometry">
            <mxPoint x="363" y="560" as="sourcePoint" />
            <mxPoint x="443" y="560" as="targetPoint" />
          </mxGeometry>
        </mxCell>
        <mxCell id="H_uFPEffW0rqtd1O7-SZ-36" value="" style="endArrow=classicThin;html=1;rounded=0;strokeWidth=1;jumpSize=4;endFill=1;endSize=4;" edge="1" parent="1">
          <mxGeometry width="50" height="50" relative="1" as="geometry">
            <mxPoint x="363" y="560" as="sourcePoint" />
            <mxPoint x="363" y="490" as="targetPoint" />
          </mxGeometry>
        </mxCell>
        <mxCell id="H_uFPEffW0rqtd1O7-SZ-37" value="" style="group" vertex="1" connectable="0" parent="1">
          <mxGeometry x="353.5" y="266" width="100.5" height="104" as="geometry" />
        </mxCell>
        <mxCell id="H_uFPEffW0rqtd1O7-SZ-38" value="" style="verticalLabelPosition=bottom;verticalAlign=top;html=1;shape=mxgraph.basic.arc;startAngle=0.40038097503927417;endAngle=0.5989014832789807;" vertex="1" parent="H_uFPEffW0rqtd1O7-SZ-37">
          <mxGeometry y="4" width="100" height="100" as="geometry" />
        </mxCell>
        <mxCell id="H_uFPEffW0rqtd1O7-SZ-39" value="" style="verticalLabelPosition=bottom;verticalAlign=top;html=1;shape=mxgraph.basic.arc;startAngle=0.40738692403756394;endAngle=0.5975949807136545;" vertex="1" parent="H_uFPEffW0rqtd1O7-SZ-37">
          <mxGeometry x="0.5" width="100" height="100" as="geometry" />
        </mxCell>
        <mxCell id="H_uFPEffW0rqtd1O7-SZ-40" value="" style="fontColor=#0066CC;verticalAlign=top;verticalLabelPosition=bottom;labelPosition=center;align=center;html=1;outlineConnect=0;fillColor=#CCCCCC;strokeColor=#6881B3;gradientColor=none;gradientDirection=north;strokeWidth=2;shape=mxgraph.networks.satellite;rotation=-45;" vertex="1" parent="1">
          <mxGeometry x="478.5" y="210" width="60" height="60" as="geometry" />
        </mxCell>
        <mxCell id="H_uFPEffW0rqtd1O7-SZ-41" value="" style="ellipse;whiteSpace=wrap;html=1;aspect=fixed;" vertex="1" parent="1">
          <mxGeometry x="469" y="405" width="80" height="80" as="geometry" />
        </mxCell>
        <mxCell id="H_uFPEffW0rqtd1O7-SZ-42" value="" style="triangle;whiteSpace=wrap;html=1;fontFamily=Helvetica;fontSize=12;fontColor=rgb(0, 0, 0);align=center;strokeColor=rgb(0, 0, 0);fillColor=rgb(255, 255, 255);rotation=-90;" vertex="1" parent="1">
          <mxGeometry x="453" y="295" width="111" height="80" as="geometry" />
        </mxCell>
        <mxCell id="H_uFPEffW0rqtd1O7-SZ-43" value="" style="rounded=0;whiteSpace=wrap;html=1;" vertex="1" parent="1">
          <mxGeometry x="468" y="390" width="81" height="10" as="geometry" />
        </mxCell>
        <mxCell id="H_uFPEffW0rqtd1O7-SZ-44" value="" style="endArrow=none;dashed=1;html=1;dashPattern=1 3;strokeWidth=1;rounded=0;jumpSize=4;" edge="1" parent="1">
          <mxGeometry width="50" height="50" relative="1" as="geometry">
            <mxPoint x="469" y="450" as="sourcePoint" />
            <mxPoint x="469" y="400" as="targetPoint" />
          </mxGeometry>
        </mxCell>
        <mxCell id="H_uFPEffW0rqtd1O7-SZ-45" value="" style="endArrow=none;dashed=1;html=1;dashPattern=1 3;strokeWidth=1;rounded=0;jumpSize=4;" edge="1" parent="1">
          <mxGeometry width="50" height="50" relative="1" as="geometry">
            <mxPoint x="548.4300000000001" y="450" as="sourcePoint" />
            <mxPoint x="548.4300000000001" y="400" as="targetPoint" />
          </mxGeometry>
        </mxCell>
        <mxCell id="H_uFPEffW0rqtd1O7-SZ-46" value="" style="endArrow=classicThin;html=1;rounded=0;strokeWidth=1;jumpSize=4;endFill=1;startSize=6;endSize=4;" edge="1" parent="1">
          <mxGeometry width="50" height="50" relative="1" as="geometry">
            <mxPoint x="468" y="560" as="sourcePoint" />
            <mxPoint x="548" y="560" as="targetPoint" />
          </mxGeometry>
        </mxCell>
        <mxCell id="H_uFPEffW0rqtd1O7-SZ-47" value="" style="endArrow=classicThin;html=1;rounded=0;strokeWidth=1;jumpSize=4;endFill=1;endSize=4;" edge="1" parent="1">
          <mxGeometry width="50" height="50" relative="1" as="geometry">
            <mxPoint x="468" y="560" as="sourcePoint" />
            <mxPoint x="468" y="490" as="targetPoint" />
          </mxGeometry>
        </mxCell>
        <mxCell id="H_uFPEffW0rqtd1O7-SZ-48" value="" style="group" vertex="1" connectable="0" parent="1">
          <mxGeometry x="458.5" y="266" width="100.5" height="104" as="geometry" />
        </mxCell>
        <mxCell id="H_uFPEffW0rqtd1O7-SZ-49" value="" style="verticalLabelPosition=bottom;verticalAlign=top;html=1;shape=mxgraph.basic.arc;startAngle=0.40038097503927417;endAngle=0.5989014832789807;" vertex="1" parent="H_uFPEffW0rqtd1O7-SZ-48">
          <mxGeometry y="4" width="100" height="100" as="geometry" />
        </mxCell>
        <mxCell id="H_uFPEffW0rqtd1O7-SZ-50" value="" style="verticalLabelPosition=bottom;verticalAlign=top;html=1;shape=mxgraph.basic.arc;startAngle=0.40738692403756394;endAngle=0.5975949807136545;" vertex="1" parent="H_uFPEffW0rqtd1O7-SZ-48">
          <mxGeometry x="0.5" width="100" height="100" as="geometry" />
        </mxCell>
      </root>
    </mxGraphModel>
  </diagram>
</mxfile>
